<!-- Puzzle Icon -->
<svg xmlns="http://www.w3.org/2000/svg" viewBox="0 0 24 24" fill="none" stroke="currentColor" stroke-width="2" stroke-linecap="round" stroke-linejoin="round">
  <path d="M19.439 13.269l-1.178-1.178a1.5 1.5 0 0 0-2.121 0l-1.178 1.178a1.5 1.5 0 0 0 0 2.121l1.178 1.178a1.5 1.5 0 0 0 2.121 0l1.178-1.178a1.5 1.5 0 0 0 0-2.121z"></path>
  <path d="M21 12c0 4.418-4.03 8-9 8a9.863 9.863 0 0 1-4.255-.949L3 20l1.395-3.72C3.512 15.042 3 13.574 3 12c0-4.418 4.03-8 9-8s9 3.582 9 8z"></path>
</svg>
